<?xml version="1.0" encoding="UTF-8" standalone="no"?>
<svg
   id="splitsvg"
   version="1.1"
   width="70.208405"
   height="70.094757"
   xmlns="http://www.w3.org/2000/svg"
   xmlns:svg="http://www.w3.org/2000/svg">
  <defs
     id="defs1" />
  <path
     id="path0"
     d="m 31.468534,0.10750902 c -0.33,0.08 -1.748,0.357 -3.151,0.616 C 14.835534,3.214509 4.4205342,13.193509 0.67153418,27.212509 c -1.219,4.562 -0.686,16.445 0.85500002,19.03 0.199,0.332 0.895,-1.054 1.634,-3.249 1.769,-5.262 5.656,-12.8 8.5459998,-16.572 13.895,-18.142 38.929,-18.237 46.6,-0.177 1.208,2.843 1.117,3.009 -1.727,3.145 -4.938,0.237 -7.613,3.111 -6.821,7.329 0.487,2.598 7.178,7.842 15.102,11.836 2.365,1.192 2.523,1.121 3.444,-1.56 2.559,-7.446 2.537,-16.046 -0.058,-23.505 -3.998,-11.488 -13.754,-20.012 -25.975,-22.69599998 -2.581,-0.566 -9.484,-1.005 -10.803,-0.686 m -4.207,43.03699998 c -2.027,2.547 -4.595,8.497 -5.082,11.776 -0.104,0.702 -0.375,2.155 -0.603,3.227 -0.38,1.795 -1.088,6.571 -1.174,7.925 -0.118,1.845 10.099,4.363 16.167,3.984 4.731,-0.295 10.454,-1.74 14.019,-3.539 2.225,-1.124 2.206,-1.192 -0.74,-2.668 -2.959,-1.483 -2.845,-1.416 -6.821,-4.014 -8.27,-5.405 -11.505,-9.341 -13.224,-16.091 -0.642,-2.519 -0.955,-2.593 -2.542,-0.6"
     stroke="none"
     fill="#c5a12f"
     fill-rule="evenodd"
     style="fill:#c69814;fill-opacity:1" />
  <path
     d="m 34.283764,17.322699 c -0.33,0.075 -1.327,0.285 -2.216,0.465 -8.143,1.651 -15.64,8.351 -20.774,18.567 -2.1929998,4.361 -3.2629998,7.187 -5.0609998,13.357 -1.08,3.708 -1.089,3.515 0.273,5.522 0.988,1.454 2.121,2.376 2.121,1.725 0,-1.431 3.2489998,-11.827 4.8899998,-15.649 3.666,-8.535 9.967,-15.926 15.215,-17.847 5.646,-2.066 9.169,-2.401 12.856,-1.223 3.5,1.118 3.567,1.234 1.882,3.262 -5.234,6.299 -4.46,14.53 1.959,20.836 3.799,3.733 11.652,8.813 15.777,10.205 l 1.415,0.478 1.063,-1.447 c 1.39,-1.895 1.359,-1.94 -2.909,-4.186 -9.067,-4.771 -14.864,-10.107 -15.872,-14.61 -0.907,-4.052 1.511,-9.138 5.279,-11.107 1.986,-1.038 2.037,-1.398 0.452,-3.199 -3.366,-3.824 -11.27,-6.314 -16.35,-5.149"
     style="fill:#dac46e;fill-opacity:1;fill-rule:evenodd;stroke:none"
     id="path1" />
</svg>
